<svg width="20" height="20" viewBox="0 0 20 20" fill="none" xmlns="http://www.w3.org/2000/svg">
<path d="M15.625 8.125V5.625C15.625 2.51812 13.1069 0 10 0C6.89313 0 4.375 2.51812 4.375 5.625V8.125C3.33938 8.125 2.5 8.96438 2.5 10V11.875V12.5V13.75V14.375C2.5 17.4819 5.01812 20 8.125 20H11.875C14.9819 20 17.5 17.4819 17.5 14.375V13.75V12.5V11.875V10C17.5 8.96375 16.66 8.125 15.625 8.125ZM5.625 5.625C5.625 3.20875 7.58375 1.25 10 1.25C12.4163 1.25 14.375 3.20875 14.375 5.625V8.125H13.125V5.62625C13.125 3.9 11.7262 2.50125 10 2.50125C8.27375 2.50125 6.875 3.9 6.875 5.62625V8.125H5.625V5.625ZM12.5 5.625V5.62687V8.125H7.5V5.62625V5.625C7.5 4.24437 8.61937 3.125 10 3.125C11.3806 3.125 12.5 4.24437 12.5 5.625ZM16.25 11.875V12.5V13.75V14.375C16.25 16.7869 14.2869 18.75 11.875 18.75H8.125C5.71312 18.75 3.75 16.7869 3.75 14.375V13.75V12.5V11.875V10C3.75 9.655 4.03 9.375 4.375 9.375C4.79187 9.375 5.20813 9.375 5.625 9.375H14.375C14.7913 9.375 15.2075 9.375 15.625 9.375C15.9694 9.375 16.25 9.655 16.25 10V11.875Z" fill="#333333"/>
<path d="M10 11.875C9.31 11.875 8.75 12.4344 8.75 13.125C8.75 13.5044 8.95812 14.225 9.16687 14.795C9.33687 15.2588 9.55063 15.6237 10 15.6237C10.4887 15.6237 10.6631 15.2625 10.8337 14.8012C11.045 14.23 11.25 13.5056 11.25 13.125C11.25 12.4344 10.69 11.875 10 11.875Z" fill="#333333"/>
</svg>
