<svg width="30" height="30" viewBox="0 0 30 30" fill="none" xmlns="http://www.w3.org/2000/svg">
<path d="M14.625 9.75C15.2463 9.75 15.75 9.24632 15.75 8.625C15.75 8.00368 15.2463 7.5 14.625 7.5C14.0037 7.5 13.5 8.00368 13.5 8.625C13.5 9.24632 14.0037 9.75 14.625 9.75Z" fill="#212121"/>
<path d="M19.125 11.25C19.7463 11.25 20.25 10.7463 20.25 10.125C20.25 9.50368 19.7463 9 19.125 9C18.5037 9 18 9.50368 18 10.125C18 10.7463 18.5037 11.25 19.125 11.25Z" fill="#212121"/>
<path d="M22.875 13.5C22.875 14.1213 22.3713 14.625 21.75 14.625C21.1287 14.625 20.625 14.1213 20.625 13.5C20.625 12.8787 21.1287 12.375 21.75 12.375C22.3713 12.375 22.875 12.8787 22.875 13.5Z" fill="#212121"/>
<path d="M21.75 19.125C22.3713 19.125 22.875 18.6213 22.875 18C22.875 17.3787 22.3713 16.875 21.75 16.875C21.1287 16.875 20.625 17.3787 20.625 18C20.625 18.6213 21.1287 19.125 21.75 19.125Z" fill="#212121"/>
<path d="M19.875 21C19.875 21.6213 19.3713 22.125 18.75 22.125C18.1287 22.125 17.625 21.6213 17.625 21C17.625 20.3787 18.1287 19.875 18.75 19.875C19.3713 19.875 19.875 20.3787 19.875 21Z" fill="#212121"/>
<path d="M20.5458 4.48754C16.4139 2.36495 12.2148 2.5686 8.6551 4.74954C6.83863 5.86245 4.87996 8.20388 3.77407 10.5885C3.21812 11.7872 2.84872 13.0574 2.85356 14.2398C2.85848 15.4412 3.25474 16.5881 4.26058 17.408C5.17586 18.1539 5.97247 18.5295 6.7436 18.5676C7.52062 18.606 8.12705 18.2913 8.60143 18.0114C8.70572 17.9499 8.80336 17.8905 8.89669 17.8338C9.25997 17.6132 9.55807 17.4321 9.93073 17.3139C10.3529 17.1801 10.8873 17.1308 11.6637 17.3681C11.9499 17.4555 12.1224 17.5853 12.2432 17.7344C12.3719 17.8934 12.4749 18.1161 12.5518 18.4329C12.6293 18.7524 12.6715 19.1291 12.703 19.5737C12.7148 19.7391 12.7257 19.9283 12.7371 20.1264C12.7538 20.4147 12.7715 20.7224 12.7946 21.0056C12.8765 22.0116 13.0496 23.1602 13.6554 24.2036C14.2765 25.2732 15.307 26.1585 16.9605 26.7237C19.3639 27.5454 21.5596 26.8787 23.2689 25.5254C24.9586 24.1875 26.2036 22.1642 26.8263 20.1408C28.7986 13.7307 26.5092 7.55091 20.5458 4.48754ZM9.43873 6.02858C12.5353 4.13139 16.1766 3.92939 19.8604 5.82179C25.1209 8.52413 27.1702 13.9224 25.3926 19.6998C24.8436 21.4841 23.7507 23.2307 22.3378 24.3494C20.9445 25.4526 19.2729 25.929 17.4457 25.3044C16.0903 24.8411 15.37 24.1694 14.9526 23.4504C14.52 22.7054 14.367 21.8334 14.2897 20.8838C14.2665 20.5995 14.252 20.3432 14.2372 20.0826C14.226 19.8846 14.2146 19.6844 14.1993 19.4675C14.1664 19.0035 14.1176 18.5249 14.0095 18.0794C13.9008 17.6312 13.7235 17.1791 13.409 16.7906C13.0866 16.3923 12.653 16.1019 12.102 15.9335C11.0497 15.612 10.204 15.6539 9.47758 15.884C8.91496 16.0623 8.43023 16.3592 8.05768 16.5873C7.97987 16.6349 7.90694 16.6796 7.83923 16.7195C7.4114 16.9719 7.13035 17.085 6.8177 17.0694C6.49918 17.0537 6.00392 16.8938 5.20826 16.2452C4.62989 15.7737 4.35709 15.1002 4.35355 14.2336C4.34992 13.348 4.63264 12.3025 5.13485 11.2196C6.14528 9.0408 7.92706 6.95474 9.43873 6.02858Z" fill="#212121"/>
</svg>
