<svg width="30" height="30" viewBox="0 0 30 30" fill="none" xmlns="http://www.w3.org/2000/svg">
<path d="M19.5002 5.25C19.8129 5.25 20.0927 5.44394 20.2025 5.73666L24.6963 17.7204C24.7006 17.7312 24.7047 17.742 24.7086 17.7531L26.9525 23.7366C27.098 24.1245 26.9015 24.5568 26.5135 24.7023C26.1257 24.8477 25.6934 24.6511 25.548 24.2634L23.4804 18.75H15.5199L13.4525 24.2634C13.3437 24.5534 13.068 24.7465 12.7584 24.75C12.4487 24.7533 12.1688 24.5661 12.0538 24.2785L10.4424 20.25H6.05798L4.44656 24.2785C4.29272 24.6631 3.85625 24.8502 3.47166 24.6963C3.08708 24.5425 2.90001 24.106 3.05384 23.7214L4.84736 19.2376C4.85139 19.2268 4.85565 19.2162 4.86015 19.2057L7.55384 12.4714C7.66775 12.1867 7.94352 12 8.2502 12C8.55689 12 8.83266 12.1867 8.94656 12.4714L11.6402 19.2057C11.6447 19.2162 11.649 19.2268 11.6531 19.2376L12.7276 21.9242L14.2918 17.7531C14.2956 17.7421 14.2997 17.7312 14.304 17.7204L18.798 5.73666C18.9078 5.44394 19.1876 5.25 19.5002 5.25ZM16.0824 17.25H22.9179L19.5002 8.136L16.0824 17.25ZM9.84243 18.75L8.2502 14.7694L6.65798 18.75H9.84243Z" fill="#212121"/>
</svg>
