<svg width="50" height="50" viewBox="0 0 50 50" fill="none" xmlns="http://www.w3.org/2000/svg">
<path d="M25 4.6875C13.7793 4.6875 4.6875 13.7793 4.6875 25C4.6875 36.2207 13.7793 45.3125 25 45.3125C36.2207 45.3125 45.3125 36.2207 45.3125 25C45.3125 13.7793 36.2207 4.6875 25 4.6875ZM25 43.623C14.7363 43.623 6.37695 35.2734 6.37695 25C6.37695 14.7266 14.7363 6.37695 25 6.37695C35.2637 6.37695 43.623 14.7363 43.623 25C43.623 35.2637 35.2637 43.623 25 43.623Z" fill="black"/>
<path d="M25.791 12.5H24.1504V24.209H12.5V25.8496H24.1504V37.5H25.791V25.8496H37.5V24.209H25.791V12.5Z" fill="black"/>
</svg>
