<svg width="30" height="31" viewBox="0 0 30 31" fill="none" xmlns="http://www.w3.org/2000/svg">
<path d="M15 0C23.2843 0 30 6.9384 30 15.4973C30 24.0563 23.2843 30.9947 15 30.9947C6.71572 30.9947 0 24.0563 0 15.4973C0 6.9384 6.71572 0 15 0ZM15 1.93717C7.75127 1.93717 1.875 8.00827 1.875 15.4973C1.875 22.9864 7.75127 29.0575 15 29.0575C22.2487 29.0575 28.125 22.9864 28.125 15.4973C28.125 8.00827 22.2487 1.93717 15 1.93717ZM15 22.2774C15.7766 22.2774 16.4062 22.9279 16.4062 23.7303C16.4062 24.5327 15.7766 25.1832 15 25.1832C14.2234 25.1832 13.5938 24.5327 13.5938 23.7303C13.5938 22.9279 14.2234 22.2774 15 22.2774ZM15 6.78009C17.5888 6.78009 19.6875 8.94834 19.6875 11.623C19.6875 13.0363 19.0965 14.35 18.0962 15.2593L17.8063 15.502L17.3966 15.8179L17.2324 15.9568C17.1278 16.0496 17.0316 16.1438 16.9399 16.2449C16.3056 16.9433 15.9375 17.9037 15.9375 19.3717C15.9375 19.9065 15.5177 20.3403 15 20.3403C14.4822 20.3403 14.0625 19.9065 14.0625 19.3717C14.0625 17.4113 14.6121 15.9768 15.5726 14.9193C15.7809 14.6899 15.9975 14.4898 16.2392 14.2939L16.7018 13.9367L16.923 13.7436C17.4844 13.2005 17.8125 12.4406 17.8125 11.623C17.8125 10.0182 16.5532 8.71726 15 8.71726C13.4467 8.71726 12.1875 10.0182 12.1875 11.623C12.1875 12.1579 11.7678 12.5916 11.25 12.5916C10.7322 12.5916 10.3125 12.1579 10.3125 11.623C10.3125 8.94834 12.4112 6.78009 15 6.78009Z" fill="#212121"/>
</svg>
