<svg width="40" height="40" viewBox="0 0 40 40" fill="none" xmlns="http://www.w3.org/2000/svg">
<path d="M15.3125 14.3125H17.1875V29.3125H15.3125V14.3125Z" fill="black"/>
<path d="M19.0625 14.3125H20.9375V29.3125H19.0625V14.3125Z" fill="black"/>
<path d="M22.8125 14.3125H24.6875V29.3125H22.8125V14.3125Z" fill="black"/>
<path d="M7.8125 8.6875H32.1875V10.5625H7.8125V8.6875Z" fill="black"/>
<path d="M24.625 9.625H22.875V7.75C22.875 7.1875 22.4375 6.75 21.875 6.75H18.125C17.5625 6.75 17.125 7.1875 17.125 7.75V9.625H15.375V7.75C15.375 6.25 16.625 5 18.125 5H21.875C23.375 5 24.625 6.25 24.625 7.75V9.625Z" fill="black"/>
<path d="M25.625 34.9375H14.375C12.875 34.9375 11.5625 33.6875 11.4375 32.1875L9.6875 9.6875L11.5625 9.5625L13.3125 32.0625C13.375 32.625 13.875 33.0625 14.375 33.0625H25.625C26.1875 33.0625 26.6875 32.5625 26.6875 32.0625L28.4375 9.5625L30.3125 9.6875L28.5625 32.1875C28.4375 33.75 27.125 34.9375 25.625 34.9375Z" fill="black"/>
</svg>
