<svg width="40" height="40" viewBox="0 0 40 40" fill="none" xmlns="http://www.w3.org/2000/svg">
<path d="M28.75 0C32.2017 0 35 2.79822 35 6.25V16.4993C34.208 16.0944 33.3715 15.7641 32.5 15.5176V10H2.5V28.75C2.5 30.821 4.17892 32.5 6.25 32.5H15.5176C15.7641 33.3715 16.0944 34.208 16.4993 35H6.25C2.79822 35 0 32.2018 0 28.75V6.25C0 2.79822 2.79822 0 6.25 0H28.75ZM28.75 2.5H6.25C4.17892 2.5 2.5 4.17893 2.5 6.25V7.5H32.5V6.25C32.5 4.17893 30.821 2.5 28.75 2.5ZM22.6642 21.105C23.4225 23.8078 21.8075 26.605 19.0877 27.2997L17.935 27.5942C17.8975 27.974 17.8785 28.3595 17.8785 28.7498C17.8785 29.2188 17.9062 29.6812 17.96 30.1353L18.834 30.342C21.6325 31.0035 23.2975 33.884 22.4742 36.6393L22.1582 37.6963C22.8012 38.2043 23.5005 38.6397 24.245 38.991L25.0575 38.1308C27.032 36.04 30.359 36.0417 32.3312 38.1345L33.1745 39.0295C33.9057 38.6922 34.594 38.2738 35.2292 37.7855L34.839 36.3938C34.0807 33.691 35.6957 30.8938 38.4155 30.1987L39.567 29.9047C39.6042 29.525 39.6235 29.1397 39.6235 28.7498C39.6235 28.2803 39.5957 27.8175 39.5417 27.363L38.6692 27.1568C35.8707 26.495 34.2057 23.6147 35.029 20.8595L35.3445 19.8038C34.7015 19.2955 34.002 18.8598 33.2575 18.5085L32.4457 19.368C30.4712 21.4587 27.1442 21.457 25.172 19.3643L24.3285 18.4692C23.5975 18.8065 22.909 19.2247 22.2737 19.713L22.6642 21.105ZM28.751 31.2498C27.3702 31.2498 26.251 30.1302 26.251 28.7498C26.251 27.369 27.3702 26.2498 28.751 26.2498C30.1317 26.2498 31.251 27.369 31.251 28.7498C31.251 30.1302 30.1317 31.2498 28.751 31.2498Z" fill="#212121"/>
</svg>
