<svg width="25" height="25" viewBox="0 0 25 25" fill="none" xmlns="http://www.w3.org/2000/svg">
<path d="M12.5 2.5C9.73857 2.5 7.5 4.73857 7.5 7.5C7.5 10.2614 9.73857 12.5 12.5 12.5C15.2614 12.5 17.5 10.2614 17.5 7.5C17.5 4.73857 15.2614 2.5 12.5 2.5ZM8.75 7.5C8.75 5.42894 10.4289 3.75 12.5 3.75C14.5711 3.75 16.25 5.42894 16.25 7.5C16.25 9.57106 14.5711 11.25 12.5 11.25C10.4289 11.25 8.75 9.57106 8.75 7.5Z" fill="#212121"/>
<path d="M6.26091 13.75C4.87894 13.75 3.75 14.8586 3.75 16.25C3.75 18.364 4.79101 19.9579 6.41874 20.9958C8.02121 22.0175 10.1816 22.5 12.5 22.5C14.8184 22.5 16.9788 22.0175 18.5812 20.9958C20.209 19.9579 21.25 18.364 21.25 16.25C21.25 14.8695 20.1306 13.75 18.75 13.75H6.26091ZM5 16.25C5 15.5584 5.55982 15 6.26091 15H18.75C19.4403 15 20 15.5597 20 16.25C20 17.886 19.2221 19.1046 17.9093 19.9417C16.571 20.795 14.6689 21.25 12.5 21.25C10.3311 21.25 8.42897 20.795 7.09077 19.9417C5.77782 19.1046 5 17.886 5 16.25Z" fill="#212121"/>
</svg>
