<svg width="30" height="30" viewBox="0 0 30 30" fill="none" xmlns="http://www.w3.org/2000/svg">
<path d="M15 27C21.6275 27 27 21.6275 27 15C27 8.37258 21.6275 3 15 3C8.37258 3 3 8.37258 3 15C3 21.6275 8.37258 27 15 27ZM15 4.5C15.9852 4.5 17.1102 5.38538 18.0327 7.36221C18.3589 8.06129 18.6424 8.86467 18.8709 9.75H11.129C11.3576 8.86467 11.6411 8.06129 11.9673 7.36221C12.8898 5.38538 14.0147 4.5 15 4.5ZM10.608 6.72789C10.1935 7.61629 9.84747 8.63544 9.58396 9.75H5.90472C7.15943 7.58099 9.16773 5.90245 11.5716 5.07244C11.2095 5.56833 10.8874 6.12926 10.608 6.72789ZM9.28897 11.25C9.10084 12.4325 9 13.694 9 15C9 16.3061 9.10084 17.5675 9.28897 18.75H5.18945C4.74402 17.5854 4.5 16.3212 4.5 15C4.5 13.6788 4.74402 12.4146 5.18945 11.25H9.28897ZM9.58396 20.25C9.84747 21.3645 10.1935 22.3837 10.608 23.272C10.8874 23.8707 11.2095 24.4317 11.5716 24.9276C9.16773 24.0975 7.15943 22.419 5.90472 20.25H9.58396ZM11.129 20.25H18.8709C18.6424 21.1353 18.3589 21.9387 18.0327 22.6378C17.1102 24.6145 15.9852 25.5 15 25.5C14.0147 25.5 12.8898 24.6145 11.9673 22.6378C11.6411 21.9387 11.3576 21.1353 11.129 20.25ZM19.1907 18.75H10.8093C10.6102 17.5879 10.5 16.325 10.5 15C10.5 13.675 10.6102 12.4121 10.8093 11.25H19.1907C19.3899 12.4121 19.5 13.675 19.5 15C19.5 16.325 19.3899 17.5879 19.1907 18.75ZM20.416 20.25H24.0952C22.8406 22.419 20.8323 24.0975 18.4284 24.9276C18.7905 24.4317 19.1126 23.8707 19.392 23.272C19.8066 22.3837 20.1525 21.3645 20.416 20.25ZM24.8106 18.75H20.7111C20.8992 17.5675 21 16.3061 21 15C21 13.694 20.8992 12.4325 20.7111 11.25H24.8106C25.2559 12.4146 25.5 13.6788 25.5 15C25.5 16.3212 25.2559 17.5854 24.8106 18.75ZM18.4284 5.07244C20.8323 5.90245 22.8406 7.58099 24.0952 9.75H20.416C20.1525 8.63544 19.8066 7.61629 19.392 6.72789C19.1126 6.12926 18.7905 5.56833 18.4284 5.07244Z" fill="#212121"/>
</svg>
